<svg version="1.1" xmlns="http://www.w3.org/2000/svg" viewBox="0 0 504 504">
<circle style="fill:#FFD05B;" cx="252" cy="252" r="252"/>
<g>
	<circle style="fill:#324A5E;" cx="191.2" cy="124.8" r="24.8"/>
	<circle style="fill:#324A5E;" cx="346.4" cy="124.8" r="24.8"/>
</g>
<polygon style="fill:#2B3B4E;" points="409.6,94.4 94.4,94.4 94.4,409.6 116.8,409.6 116.8,116.8 409.6,116.8 "/>
<rect x="144.4" y="154.4" style="fill:#F1543F;" width="264.8" height="185.6"/>
<rect x="162" y="188" style="fill:#4CDBC4;" width="229.2" height="133.2"/>
<g>
	<path style="fill:#2B3B4E;" d="M192,179.2L192,179.2c-5.6,0-10.4-4.8-10.4-10.4v-28c0-5.6,4.8-10.4,10.4-10.4l0,0
		c5.6,0,10.4,4.8,10.4,10.4v28C202.4,174.4,197.6,179.2,192,179.2z"/>
	<path style="fill:#2B3B4E;" d="M346.4,179.2L346.4,179.2c-5.6,0-10.4-4.8-10.4-10.4v-28c0-5.6,4.8-10.4,10.4-10.4l0,0
		c5.6,0,10.4,4.8,10.4,10.4v28C356.8,174.4,352.4,179.2,346.4,179.2z"/>
</g>
<g>
	<path style="fill:#FFFFFF;" d="M184.4,283.2v-56.4h11.2V272h21.6v11.2H184.4z"/>
	<path style="fill:#FFFFFF;" d="M266.4,275.6c-5.2,5.6-11.2,8.4-18.8,8.4c-7.6,0-13.6-2.8-18.8-8.4s-7.6-12.4-7.6-20.8
		s2.4-15.2,7.6-20.8c5.2-5.6,11.2-8.4,18.8-8.4c7.6,0,13.6,2.8,18.8,8.4c5.2,5.6,7.6,12.4,7.6,20.8C274,263.2,271.6,270,266.4,275.6
		z M262.4,254.8c0-5.2-1.6-9.2-4.4-12.8s-6.4-5.2-10.8-5.2c-4.4,0-7.6,1.6-10.8,5.2c-2.8,3.6-4.4,8-4.4,12.8c0,5.2,1.6,9.2,4.4,12.8
		c2.8,3.6,6.4,5.2,10.8,5.2c4.4,0,7.6-1.6,10.8-5.2C261.2,264,262.4,260,262.4,254.8z"/>
	<path style="fill:#FFFFFF;" d="M301.2,262.8l12.8-36h12l-20.4,56.4H296l-20-56.4h12L301.2,262.8z"/>
	<path style="fill:#FFFFFF;" d="M368.4,226.8V238h-25.2v11.6h22.4v10.8h-22.4V272h26v11.2H332v-56.4H368.4z"/>
</g>
</svg>
