<svg version="1.1" xmlns="http://www.w3.org/2000/svg" viewBox="0 0 512 512">
<circle style="fill:#FFD15D;" cx="256" cy="256" r="256"/>
<path style="fill:#F9B54C;" d="M337.518,498.74c86.354-28.987,152.135-102.765,169.774-193.727L364.339,162.059l-76.3,72.963
	l-69.27-69.27l-26.441,37.271l-17.351,25.971l-26.967,80.241L337.518,498.74z"/>
<path style="fill:#F1543F;" d="M88.593,215.364c0-41.17,33.377-74.545,74.55-74.545s74.55,33.375,74.55,74.545
	c0-41.17,33.377-74.545,74.55-74.545s74.55,33.375,74.55,74.545c0,71.282-149.101,156.544-149.101,156.544
	S88.593,290.663,88.593,215.364z"/>
<path style="fill:#C1321F;" d="M237.692,215.364c0-41.17,33.377-74.545,74.55-74.545s74.55,33.375,74.55,74.545
	c0,71.282-149.101,156.544-149.101,156.544V215.364z"/>
<circle style="fill:#FFFFFF;" cx="335.058" cy="317.302" r="71.111"/>
<path style="fill:#E6F3FF;" d="M406.169,317.307c0-39.241-31.785-71.056-71.013-71.109v142.217
	C374.386,388.363,406.169,356.549,406.169,317.307z"/>
<polygon style="fill:#05BEA6;" points="377.727,307.826 344.542,307.826 344.542,274.641 325.579,274.641 325.579,307.826 
	292.393,307.826 292.393,326.789 325.579,326.789 325.579,359.974 344.542,359.974 344.542,326.789 377.727,326.789 "/>
<polygon style="fill:#049B81;" points="344.542,307.826 344.542,274.641 335.157,274.641 335.157,359.974 344.542,359.974 
	344.542,326.789 377.727,326.789 377.727,307.826 "/>
</svg>
