<svg version="1.1" xmlns="http://www.w3.org/2000/svg" viewBox="0 0 504 504">
<circle style="fill:#90DFAA;" cx="252" cy="252" r="252"/>
<path style="fill:#FF7058;" d="M347.2,110.8c-28.4-10.8-67.6-2.8-96,31.6c-12.8-15.6-27.6-25.6-42.8-31.2l-114,113.6
	c0.8,4.8,1.6,9.6,3.2,14.4c5.2,20,16,39.2,32,55.6c122,126.4,122,126.4,122,126.4s0,0,122-126.4c16.4-17.2,27.2-36.8,32.4-57.2
	c1.2-5.2,2.4-10.4,3.2-15.6C414.4,174.4,392,127.6,347.2,110.8z"/>
<g>
	<path style="fill:#FFFFFF;" d="M148.4,274v-56h12.4v45.2h24v11.2h-36.4V274z"/>
	<path style="fill:#FFFFFF;" d="M240.4,266c-5.6,5.6-12.8,8.4-21.2,8.4S204,271.6,198,266c-5.6-5.6-8.4-12.4-8.4-20.8
		c0-8.4,2.8-15.2,8.4-20.8c5.6-5.6,12.8-8.4,21.2-8.4s15.2,2.8,21.2,8.4c5.6,5.6,8.4,12.4,8.4,20.8C248.8,253.6,246,260.4,240.4,266
		z M236,245.2c0-5.2-1.6-9.2-4.8-12.8s-7.2-5.2-12-5.2s-8.8,1.6-12,5.2c-3.2,3.6-4.8,8-4.8,12.8c0,5.2,1.6,9.2,4.8,12.8
		s7.2,5.2,12,5.2s8.8-1.6,12-5.2C234.4,254.8,236,250.4,236,245.2z"/>
	<path style="fill:#FFFFFF;" d="M279.2,253.2l14.4-35.6h13.6l-22.8,56h-10.8l-22.8-56h13.6L279.2,253.2z"/>
	<path style="fill:#FFFFFF;" d="M354.4,217.6v11.2h-28v11.6h25.2v10.8h-25.2v11.6h28.8V274H314v-56h40.4V217.6z"/>
</g>
<path style="fill:#F1543F;" d="M147.6,225.6c45.2-16.8,67.6-64.4,61.2-112.8c0-0.4,0-0.8-0.4-1.2l-114,113.2
	C113.2,231.6,132,231.2,147.6,225.6z"/>
</svg>
