<svg version="1.1" xmlns="http://www.w3.org/2000/svg" viewBox="0 0 504 504">
<circle style="fill:#90DFAA;" cx="252" cy="252" r="252"/>
<polygon style="fill:#2B3B4E;" points="252,102.4 161.2,192.8 150,182 252,80.4 354,182 342.8,192.8 "/>
<path style="fill:#324A5E;" d="M392.8,163.2H111.2c-9.2,0-16.8,7.2-16.8,16v194.4c0,8.8,7.6,16,16.8,16h281.6
	c9.2,0,16.8-7.2,16.8-16V179.2C409.6,170.4,402,163.2,392.8,163.2z"/>
<path style="fill:#FFFFFF;" d="M377.6,188H126.4c-3.6,0-6.8,3.2-6.8,6.8V358c0,3.6,3.2,6.8,6.8,6.8h250.8c3.6,0,6.8-3.2,6.8-6.8
	V194.8C384.4,191.2,381.2,188,377.6,188z"/>
<ellipse style="fill:#F1543F;" cx="252" cy="101.2" rx="26.4" ry="26.4"/>
<g>
	<path style="fill:#2C9984;" d="M142,306.4v-60h13.6v48h25.6v12H142z"/>
	<path style="fill:#2C9984;" d="M280.8,284.8l15.2-38h14.4l-24,60h-11.2l-24-60h14.4L280.8,284.8z"/>
	<path style="fill:#2C9984;" d="M361.2,246.4v12h-30v12.4H358V282h-26.8v12.4H362v12h-44v-60H361.2z"/>
</g>
<path style="fill:#F1543F;" d="M211.2,253.6c5.6-6.4,12.8-8,18.4-6c13.2,4.8,16,23.2,4.8,35.2c-23.2,24-23.2,24-23.2,24s0,0-23.2-24
	c-11.2-11.6-8-30,4.8-35.2C198.4,245.6,205.6,246.8,211.2,253.6z"/>
<g>
	<line style="fill:none;stroke:#F1543F;stroke-width:3;stroke-miterlimit:10;" x1="142" y1="217.6" x2="294.4" y2="217.6"/>
	<line style="fill:none;stroke:#F1543F;stroke-width:3;stroke-miterlimit:10;" x1="334.8" y1="217.6" x2="362" y2="217.6"/>
	<line style="fill:none;stroke:#F1543F;stroke-width:3;stroke-miterlimit:10;" x1="362" y1="335.2" x2="209.6" y2="335.2"/>
	<line style="fill:none;stroke:#F1543F;stroke-width:3;stroke-miterlimit:10;" x1="169.2" y1="335.2" x2="142" y2="335.2"/>
</g>
</svg>
