<svg version="1.1" xmlns="http://www.w3.org/2000/svg" viewBox="0 0 504 504">
<circle style="fill:#90DFAA;" cx="252" cy="252" r="252"/>
<path style="fill:#F1543F;" d="M400.4,241.6c-82-49.2-164,49.2-245.6,0c0-58.8,0-74,0-132.8c82,49.2,164-49.2,245.6,0
	C400.4,167.2,400.4,182.8,400.4,241.6z"/>
<rect x="154.8" y="108.8" style="fill:#2B3B4E;" width="19.2" height="300.8"/>
<g>
	<path style="fill:#FFFFFF;" d="M198,204.4c0-16.8,0-33.2,0-50c3.6,0.4,7.6,0.8,11.2,0.8c0,13.2,0,26.8,0,40c7.2,0.4,14,0.4,21.2,0
		c0,3.2,0,6.8,0,10C219.6,205.6,208.8,205.6,198,204.4z"/>
	<path style="fill:#FFFFFF;" d="M279.2,192c-5.2,6-11.2,9.6-18.8,10.4c-7.2,1.2-13.6-0.8-18.8-5.2s-7.6-10.4-7.6-17.6
		c0-7.2,2.4-13.6,7.6-19.2c5.2-5.6,11.2-8.4,18.8-9.6c7.2-1.2,13.6,0.4,18.8,4.4c5.2,4,7.6,9.6,7.6,16.8
		C286.8,179.6,284,186,279.2,192z M275.2,174.4c0-4.4-1.6-8-4.4-10.8s-6.4-3.6-10.4-3.2c-4,0.8-7.6,2.8-10.4,6
		c-2.8,3.6-4.4,7.6-4.4,12s1.6,8,4.4,10.8s6.4,4,10.4,3.2s7.6-2.8,10.4-6.4C274,182.8,275.2,178.8,275.2,174.4z"/>
	<path style="fill:#FFFFFF;" d="M313.2,174c4.4-11.6,8.4-22.8,12.8-34.4c4-0.8,8-1.6,12-2c-6.8,17.6-13.2,35.6-20,53.6
		c-3.2,0.8-6.4,1.2-9.6,2c-6.8-15.2-13.2-30.8-20-46c4-0.8,8-1.6,12-2.4C304.8,154.4,309.2,164.4,313.2,174z"/>
	<path style="fill:#FFFFFF;" d="M380,133.2c0,3.2,0,6.8,0,10c-8.4,0.4-16.4,1.2-24.8,2c0,3.6,0,6.8,0,10.4c7.6-0.8,14.8-1.6,22.4-2
		c0,3.2,0,6.4,0,9.6c-7.6,0.4-14.8,1.2-22.4,2c0,3.6,0,6.8,0,10.4c8.4-1.2,17.2-2,25.6-2c0,3.2,0,6.4,0,10
		c-12.4,0.4-24.4,2-36.8,3.6c0-16.8,0-33.2,0-50C356,134.8,368,133.6,380,133.2z"/>
</g>
<polygon style="fill:#2B3B4E;" points="202.4,390 202.4,370.4 126,370.4 126,390 103.6,390 103.6,409.6 224.8,409.6 224.8,390 "/>
</svg>
