<svg version="1.1" xmlns="http://www.w3.org/2000/svg" viewBox="0 0 504 504">
<circle style="fill:#84DBFF;" cx="252" cy="252" r="252"/>
<path style="fill:#F1543F;" d="M127.6,384c-0.4-3.2-0.4-5.6-0.4-7.6c0-26.8,0-53.6,0-80.4c0-4.8,1.2-7.2,6-9.2
	c35.2-13.6,62.4-12.8,93.2,2.8c26,12.8,51.6,26,77.2,39.2c12.4,6.4,17.2,17.6,13.6,29.2c-4.4,13.6-19.6,20-33.2,13.2
	c-13.2-6.4-26.4-13.6-40-20c-2.4-1.2-6,0-8.8,0c2,2.4,3.2,5.6,5.6,6.8c12.4,6.8,25.2,12.8,37.6,19.2c11.6,6,23.2,6.4,34-1.2
	s15.2-18,13.2-31.2c-0.4-2,1.2-4.8,2.8-6c15.6-11.6,31.2-23.6,47.2-34.8c10-7.2,22.4-5.2,29.2,4c6.8,8.8,5.2,22.4-4,29.6
	c-31.2,23.6-62.8,46.8-94.8,69.2c-4.4,3.2-12.8,4-18.4,2.4c-28.8-6.4-57.2-14.4-85.6-21.2c-9.2-2-31.6-2.8-40.8-3.6
	C157.2,383.6,132.4,384,127.6,384z"/>
<path style="fill:#F9B54C;" d="M311.2,117.2c17.6-21.6,42-26.4,59.6-19.6c42.8,16,52.8,76.8,16,114.8
	c-75.6,78.4-75.6,78.4-75.6,78.4s0,0-75.6-78.8c-36.8-38.4-26.8-98.8,16-114.8C269.2,90.8,293.6,95.6,311.2,117.2z"/>
<g>
	<rect x="94.4" y="276.8" style="fill:#324A5E;" width="50" height="112.8"/>
	<path style="fill:#324A5E;" d="M234,186.8v-42h9.2v33.6h18v8.4L234,186.8L234,186.8z"/>
	<path style="fill:#324A5E;" d="M302.4,181.2c-4.4,4-9.6,6.4-15.6,6.4s-11.6-2-15.6-6.4c-4.4-4-6.4-9.2-6.4-15.6s2-11.2,6.4-15.6
		c4.4-4,9.6-6.4,15.6-6.4s11.6,2,15.6,6.4c4.4,4,6.4,9.2,6.4,15.6S306.8,176.8,302.4,181.2z M299.2,165.6c0-3.6-1.2-6.8-3.6-9.6
		s-5.2-4-8.8-4c-3.6,0-6.4,1.2-8.8,4s-3.6,6-3.6,9.6s1.2,6.8,3.6,9.6s5.2,4,8.8,4c3.6,0,6.4-1.2,8.8-4
		C298,172.4,299.2,169.2,299.2,165.6z"/>
	<path style="fill:#324A5E;" d="M331.6,171.6l10.8-26.8h10l-16.8,42h-8l-16.8-42h10L331.6,171.6z"/>
	<path style="fill:#324A5E;" d="M387.6,144.8v8.4h-20.8v8.8h18.8v8h-18.8v8.8h21.6v8.4h-31.2v-42.4H387.6z"/>
</g>
</svg>
