<svg version="1.1" xmlns="http://www.w3.org/2000/svg" viewBox="0 0 504 504">
<circle style="fill:#FD8469;" cx="252" cy="252" r="252"/>
<path style="fill:#54C0EB;" d="M230,125.6c24.4-29.6,57.6-36.4,82.4-27.2c58.8,22,72.8,106,22.4,158.8
	C230,365.6,230,365.6,230,365.6s0,0-104.4-108.8C74.8,204,88.8,120.4,148,98.4C172.4,89.2,205.6,96,230,125.6z"/>
<path style="fill:#324A5E;" d="M320,250.8c16-19.6,38.4-24,54.4-18c38.8,14.4,48.4,70,14.8,104.8c-69.2,72-69.2,72-69.2,72
	s0,0-69.2-72c-33.6-34.8-24.4-90.4,14.8-104.8C281.6,226.4,303.6,231.2,320,250.8z"/>
<g>
	<path style="fill:#FFFFFF;" d="M116.4,206v-62h14v49.6h26.4V206H116.4z"/>
	<path style="fill:#FFFFFF;" d="M260,183.6l16-39.2h15.2L266.4,206h-11.6l-25.6-62H244L260,183.6z"/>
	<path style="fill:#FFFFFF;" d="M342.8,144v12.4H312v12.8h27.6v11.6H312v12.8h32v12h-46V144H342.8z"/>
</g>
<path style="fill:#F1543F;" d="M188,151.2c5.6-6.8,13.2-8.4,18.8-6.4c13.6,5.2,16.8,24,5.2,36c-24,24.8-24,24.8-24,24.8s0,0-24-24.8
	c-11.6-12-8.4-31.2,5.2-36C174.4,142.8,182.4,144.4,188,151.2z"/>
</svg>
